<?xml version="1.0" standalone="no"?>
<!DOCTYPE svg PUBLIC "-//W3C//DTD SVG 20010904//EN"
 "http://www.w3.org/TR/2001/REC-SVG-20010904/DTD/svg10.dtd">
<svg version="1.0" xmlns="http://www.w3.org/2000/svg"
 width="1024.000000pt" height="1024.000000pt" viewBox="0 0 1024.000000 1024.000000"
 preserveAspectRatio="xMidYMid meet">

<g transform="translate(0.000000,1024.000000) scale(0.100000,-0.100000)"
fill="#000000" stroke="none">
<path d="M0 5120 l0 -5120 5120 0 5120 0 0 5120 0 5120 -5120 0 -5120 0 0
-5120z m3388 2653 l3 -93 -96 0 -95 0 0 88 c0 49 3 92 7 96 4 4 46 5 93 4 l85
-3 3 -92z m3630 0 l3 -93 -91 0 -90 0 0 88 c0 49 3 92 7 96 4 4 43 5 88 4 l80
-3 3 -92z m-907 11 c75 -22 151 -98 173 -173 20 -67 20 -94 1 -157 -32 -108
-127 -174 -249 -174 -88 0 -136 21 -193 83 -42 45 -73 121 -73 178 0 94 88
209 187 245 51 18 89 17 154 -2z m-1034 -106 c-5 -12 -132 -302 -292 -668
-114 -261 -406 -932 -469 -1077 l-61 -143 -112 0 c-62 0 -113 3 -113 8 0 4 25
63 56 132 30 68 123 282 206 475 83 192 221 510 308 705 145 326 228 518 243
563 6 15 21 17 123 17 89 0 115 -3 111 -12z m312 -10 c5 -13 23 -54 41 -93 18
-38 52 -115 77 -170 25 -55 83 -181 128 -280 45 -99 121 -268 168 -375 47
-107 104 -235 127 -285 23 -49 89 -200 147 -335 58 -135 114 -262 124 -282 11
-21 19 -42 19 -48 0 -6 -42 -10 -114 -10 l-114 0 -32 78 c-18 42 -79 180 -136
305 -57 125 -104 230 -104 232 0 2 -79 180 -175 397 -97 216 -189 422 -205
458 -15 36 -65 145 -109 242 -45 97 -81 179 -81 182 0 4 52 6 115 6 111 0 116
-1 124 -22z m-1229 -238 l0 -100 -85 0 -85 0 0 100 0 100 85 0 85 0 0 -100z
m1210 -825 c87 -192 161 -360 165 -373 l7 -23 -117 3 -116 3 -50 110 c-27 61
-69 152 -92 202 -23 51 -45 93 -50 93 -4 0 -19 -26 -33 -57 -52 -116 -378
-874 -464 -1078 -92 -220 -395 -925 -474 -1104 -25 -57 -46 -108 -46 -113 0
-5 55 -7 123 -6 l122 3 27 55 c14 30 61 136 103 235 43 99 142 329 220 510 79
182 198 459 265 617 129 303 142 329 159 313 13 -13 115 -237 206 -450 40 -93
104 -242 143 -330 38 -88 109 -250 157 -360 48 -110 104 -236 124 -280 21 -44
59 -133 86 -197 l48 -118 643 0 644 0 0 -105 0 -105 -710 0 -711 0 -41 88
c-55 118 -208 460 -270 602 -44 102 -131 299 -275 628 -25 56 -49 102 -53 102
-4 0 -18 -24 -30 -52 -12 -29 -46 -107 -75 -173 -77 -175 -399 -919 -461
-1065 l-53 -125 -355 -2 c-225 -2 -356 1 -356 7 0 5 20 56 44 112 50 115 300
697 441 1028 51 118 144 337 208 485 63 149 142 333 175 410 33 77 124 289
202 470 78 182 165 384 192 450 28 66 56 126 62 134 12 16 21 -2 266 -544z
m-1990 390 l0 -96 -86 3 -87 3 -4 78 c-3 43 -2 85 1 93 4 11 25 14 91 14 l85
0 0 -95z m780 0 l0 -95 -85 0 -85 0 0 95 0 95 85 0 85 0 0 -95z m-175 -425 l0
-95 -87 -3 -88 -3 0 101 0 101 88 -3 87 -3 0 -95z m2413 -2 l3 -98 -91 0 -90
0 0 100 0 101 88 -3 87 -3 3 -97z m-3010 -5 l-3 -98 -78 -3 c-50 -2 -84 1 -93
9 -10 8 -14 36 -14 100 l0 89 95 0 96 0 -3 -97z m3630 0 l-3 -98 -87 -3 -88
-3 0 101 0 100 90 0 91 0 -3 -97z m-3629 -506 l1 -48 -92 3 -93 3 -3 92 -3 92
88 3 88 3 7 -50 c3 -27 6 -72 7 -98z m3631 48 l0 -95 -90 0 -90 0 0 95 0 95
90 0 90 0 0 -95z m-1291 -321 l90 -199 410 -3 411 -2 0 -105 0 -105 -487 2
-487 3 -91 210 c-50 116 -108 248 -129 295 -58 131 -65 119 60 122 66 2 114
-1 122 -8 7 -5 52 -100 101 -210z m-2326 -18 c63 -23 111 -63 152 -126 l39
-60 288 0 c158 0 288 -2 288 -5 0 -13 -69 -175 -285 -670 -24 -55 -112 -257
-195 -450 -84 -192 -158 -362 -166 -377 l-15 -28 -224 0 -224 0 -3 101 c-2 55
-1 103 1 105 2 2 75 4 161 4 l157 0 153 358 c85 196 191 441 237 545 46 103
83 192 83 197 0 6 -56 10 -143 10 l-143 0 -44 -45 c-131 -134 -351 -100 -434
67 -50 101 -28 228 54 308 75 73 174 97 263 66z m3617 -106 l0 -100 -90 0 -90
0 0 100 0 100 90 0 90 0 0 -100z m-7 -494 c18 -7 47 -29 64 -49 100 -115 12
-289 -140 -274 -54 5 -91 28 -125 77 -29 43 -36 72 -28 114 10 51 46 99 96
124 51 25 87 28 133 8z m-993 -103 c23 -49 67 -144 97 -213 30 -69 76 -172
103 -230 26 -58 51 -115 55 -128 l7 -23 -118 3 -117 3 -124 280 c-68 154 -135
306 -148 338 l-24 57 114 0 114 0 41 -87z m533 -93 c43 -96 110 -247 148 -335
l68 -160 -111 -3 c-61 -1 -115 1 -118 5 -8 9 -300 660 -300 669 0 2 52 3 117
2 l116 -3 80 -175z m-1365 -259 c71 -50 74 -151 7 -210 -86 -75 -225 -11 -225
104 0 45 46 111 90 128 28 12 98 0 128 -22z m1864 -941 c40 -82 128 -278 128
-285 0 -3 -53 -5 -119 -5 l-119 0 -20 48 c-11 26 -41 91 -66 145 -72 153 -76
165 -63 171 7 3 59 4 117 3 l105 -2 37 -75z m-409 -215 c256 -558 367 -803
367 -809 0 -3 -51 -6 -113 -6 l-113 0 -19 38 c-33 67 -176 373 -250 537 -40
88 -89 195 -109 238 l-37 77 -1513 0 c-1202 0 -1515 -3 -1519 -12 -44 -105
-188 -435 -271 -621 -58 -130 -106 -242 -106 -247 0 -6 -47 -10 -120 -10
l-119 0 30 68 c17 37 109 246 205 464 96 219 192 436 213 483 l40 85 1652 -2
1653 -3 129 -280z m-402 -218 c25 -45 49 -92 53 -104 l7 -23 -1329 0 -1330 0
-45 -107 c-25 -60 -71 -164 -101 -233 l-55 -125 -116 -3 -115 -3 12 30 c7 16
73 169 147 340 l134 311 1346 0 1346 0 46 -83z m1044 -94 c15 -33 207 -454
222 -491 4 -10 -19 -12 -112 -10 l-117 3 -72 160 c-40 88 -93 203 -119 257
-26 53 -47 101 -47 107 0 7 38 11 113 11 l113 0 19 -37z m-3117 -355 l3 -98
-90 0 -91 0 0 93 c0 52 3 97 7 101 4 4 43 5 87 4 l80 -3 4 -97z m672 2 l0
-100 -90 0 -90 0 0 93 c0 52 3 97 7 100 3 4 44 7 90 7 l83 0 0 -100z m700 0
l0 -100 -90 0 -90 0 0 93 c0 52 3 97 7 100 3 4 44 7 90 7 l83 0 0 -100z m680
-6 l0 -107 -81 6 c-44 3 -82 7 -84 9 -3 3 -8 166 -6 191 1 4 39 7 86 7 l85 0
0 -106z m-1062 -318 c31 -17 62 -65 62 -96 0 -48 -58 -100 -110 -100 -35 0
-79 28 -96 62 -44 85 60 181 144 134z"/>
<path d="M5964 7606 c-48 -48 -47 -95 1 -143 32 -32 39 -35 78 -30 136 18 123
207 -14 207 -22 0 -41 -10 -65 -34z"/>
<path d="M3284 5600 c-53 -21 -83 -110 -51 -150 23 -30 62 -50 95 -50 43 0
102 55 102 94 0 78 -77 134 -146 106z"/>
</g>
</svg>
